<?xml version="1.0" encoding="UTF-8"?>
<svg width="512" height="512" viewBox="0 0 512 512" xmlns="http://www.w3.org/2000/svg">
  <defs>
    <linearGradient id="grad" x1="0%" y1="0%" x2="100%" y2="100%">
      <stop offset="0%" style="stop-color:#E535AB;stop-opacity:1" />
      <stop offset="100%" style="stop-color:#6A11CB;stop-opacity:1" />
    </linearGradient>
  </defs>
  <rect width="512" height="512" rx="128" fill="url(#grad)"/>
  <g fill="white" transform="translate(96,96) scale(0.625)">
    <path d="M256 64C150.13 64 64 150.13 64 256s86.13 192 192 192 192-86.13 192-192S361.87 64 256 64zm0 352c-88.22 0-160-71.78-160-160S167.78 96 256 96s160 71.78 160 160-71.78 160-160 160z"/>
    <path d="M256 128c-70.69 0-128 57.31-128 128s57.31 128 128 128 128-57.31 128-128-57.31-128-128-128zm0 224c-52.94 0-96-43.06-96-96s43.06-96 96-96 96 43.06 96 96-43.06 96-96 96z"/>
    <circle cx="256" cy="256" r="32"/>
  </g>
</svg> 